#!OML:ASF H:\LiuWeirdWalks\Patient Classification 1\Patient 1\Session 1\male.ASF
:FULLY-SPECIFIED
:DEGREES
380
root 1.5746 17.6936 -28.2679 3.07617 3.68075 -6.77569
lowerback 5.04748 -0.60991 -4.42
upperback 1.45976 -1.00006 2.14658
thorax -1.2095 -0.499785 4.76544
lowerneck -24.3745 1.19963 10.0472
upperneck 35.3347 0.0783931 -7.01275
head 16.97 0.365571 -4.91591
rclavicle 2.00773e-014 -7.95139e-015
rhumerus -20.5237 -23.612 -8.01844
rradius 30.8725
rwrist -2.08074
rhand -17.981 -5.10441
rfingers 7.12502
rthumb 8.28867 -34.9218
lclavicle 2.00773e-014 -7.95139e-015
lhumerus -17.9006 21.8071 18.1624
lradius 33.5747
lwrist -1.65545
lhand -13.9085 3.37076
lfingers 7.12502
lthumb 12.2173 32.9939
rfemur -11.5669 -7.20311 20.9374
rtibia 37.9224
rfoot -13.6941 -22.21
rtoes -8.2269
lfemur -7.90627 -0.0725746 -15.3239
ltibia 33.8044
lfoot -17.4658 22.9599
ltoes -9.60667
381
root 1.57419 17.6959 -28.2555 3.07142 3.5282 -6.89792
lowerback 5.1468 -0.611063 -4.46766
upperback 1.46365 -1.0086 2.10238
thorax -1.25991 -0.502668 4.74873
lowerneck -24.2495 1.30654 10.1285
upperneck 35.2806 0.177647 -6.91307
head 16.9265 0.430468 -4.85783
rclavicle -2.49475e-014 5.56597e-015
rhumerus -20.3527 -23.5276 -8.08975
rradius 30.8186
rwrist -2.11002
rhand -17.9471 -5.16783
rfingers 7.12502
rthumb 8.32136 -34.9839
lclavicle -2.49475e-014 5.56597e-015
lhumerus -18.0663 21.7062 18.3644
lradius 33.6371
lwrist -1.68526
lhand -13.9158 3.32895
lfingers 7.12502
lthumb 12.2103 32.9526
rfemur -11.8976 -7.3087 21.0214
rtibia 38.5347
rfoot -13.4328 -21.8757
rtoes -8.55036
lfemur -7.84235 -0.0227429 -15.1906
ltibia 33.8137
lfoot -17.4383 23.0135
ltoes -9.76086
382
root 1.5732 17.6982 -28.2432 3.06566 3.37862 -7.01291
lowerback 5.24612 -0.619704 -4.52754
upperback 1.47252 -1.02783 2.06052
thorax -1.30366 -0.511177 4.74199
lowerneck -24.1384 1.40856 10.1993
upperneck 35.2437 0.271649 -6.81049
head 16.8947 0.49274 -4.79937
rclavicle 2.17669e-014 -5.56597e-015
rhumerus -20.1549 -23.4439 -8.18149
rradius 30.7727
rwrist -2.12706
rhand -17.9101 -5.23135
rfingers 7.12502
rthumb 8.35712 -35.046
lclavicle 2.17669e-014 -5.56597e-015
lhumerus -18.2396 21.633 18.5467
lradius 33.6704
lwrist -1.75097
lhand -13.8761 3.29728
lfingers 7.12502
lthumb 12.2485 32.9186
rfemur -12.2546 -7.38682 21.1055
rtibia 39.1912
rfoot -13.1498 -21.563
rtoes -8.85337
lfemur -7.77077 0.0333922 -15.0613
ltibia 33.8105
lfoot -17.407 23.0585
ltoes -9.91602
383
root 1.57203 17.7004 -28.2307 3.06162 3.23338 -7.09038
lowerback 5.33232 -0.629191 -4.61889
upperback 1.50584 -1.04946 2.00619
thorax -1.31413 -0.522295 4.73975
lowerneck -24.0805 1.53305 10.2982
upperneck 35.1712 0.376559 -6.69855
head 16.8592 0.563265 -4.73844
rclavicle -1.09332e-015 2.54444e-014
rhumerus -19.9479 -23.4199 -8.28345
rradius 30.7332
rwrist -2.14814
rhand -17.8324 -5.24228
rfingers 7.12502
rthumb 8.43204 -35.054
lclavicle -1.09332e-015 2.54444e-014
lhumerus -18.3762 21.62 18.7247
lradius 33.6666
lwrist -1.82687
lhand -13.8063 3.27092
lfingers 7.12502
lthumb 12.3159 32.8882
rfemur -12.6339 -7.45839 21.1502
rtibia 39.8916
rfoot -12.832 -21.2556
rtoes -9.14871
lfemur -7.68608 0.0894607 -14.9745
ltibia 33.7878
lfoot -17.3741 23.1051
ltoes -10.057
384
root 1.57054 17.7031 -28.2175 3.0585 3.08216 -7.14834
lowerback 5.40024 -0.635787 -4.73001
upperback 1.54591 -1.06768 1.94768
thorax -1.30744 -0.532332 4.74373
lowerneck -24.0127 1.6608 10.4068
upperneck 35.0592 0.479037 -6.57675
head 16.8009 0.634127 -4.67272
rclavicle -9.34288e-015 -4.77083e-015
rhumerus -19.7463 -23.3824 -8.3848
rradius 30.7097
rwrist -2.18126
rhand -17.7379 -5.21645
rfingers 7.12502
rthumb 8.52327 -35.0244
lclavicle -9.34288e-015 -4.77083e-015
lhumerus -18.4968 21.6241 18.8947
lradius 33.6419
lwrist -1.91268
lhand -13.6887 3.26587
lfingers 7.12502
lthumb 12.4292 32.8763
rfemur -13.0355 -7.50216 21.1779
rtibia 40.6324
rfoot -12.4938 -20.9591
rtoes -9.42033
lfemur -7.58611 0.145301 -14.9101
ltibia 33.7427
lfoot -17.3375 23.1608
ltoes -10.1816
385
root 1.56865 17.7061 -28.204 3.05774 2.93915 -7.18827
lowerback 5.46034 -0.648828 -4.86116
upperback 1.58352 -1.09533 1.89207
thorax -1.29729 -0.547156 4.76258
lowerneck -23.9254 1.78797 10.5108
upperneck 34.9451 0.586406 -6.45767
head 16.7375 0.705936 -4.60635
rclavicle -3.18055e-015 -8.74653e-015
rhumerus -19.5294 -23.3148 -8.49209
rradius 30.7048
rwrist -2.24398
rhand -17.6527 -5.19262
rfingers 7.12502
rthumb 8.6055 -34.9972
lclavicle -3.18055e-015 -8.74653e-015
lhumerus -18.6279 21.6347 19.0533
lradius 33.6026
lwrist -1.97678
lhand -13.559 3.28582
lfingers 7.12502
lthumb 12.5544 32.8886
rfemur -13.4608 -7.52779 21.1932
rtibia 41.4137
rfoot -12.146 -20.6852
rtoes -9.62841
lfemur -7.47778 0.195607 -14.8649
ltibia 33.6739
lfoot -17.2932 23.2192
ltoes -10.2982
386
root 1.56648 17.7094 -28.1904 3.0579 2.80737 -7.20556
lowerback 5.51888 -0.659801 -5.00931
upperback 1.61658 -1.12136 1.82994
thorax -1.29084 -0.560972 4.7842
lowerneck -23.8261 1.89215 10.5909
upperneck 34.8418 0.665121 -6.32227
head 16.673 0.765525 -4.53492
rclavicle 3.57812e-015 -9.54166e-015
rhumerus -19.3394 -23.1985 -8.58712
rradius 30.7224
rwrist -2.31698
rhand -17.5832 -5.1752
rfingers 7.12502
rthumb 8.6726 -34.9771
lclavicle 3.57812e-015 -9.54166e-015
lhumerus -18.7218 21.6634 19.2168
lradius 33.5348
lwrist -2.06008
lhand -13.4518 3.33268
lfingers 7.12502
lthumb 12.6577 32.9291
rfemur -13.9058 -7.54403 21.1888
rtibia 42.2322
rfoot -11.8003 -20.4279
rtoes -9.73333
lfemur -7.36065 0.242042 -14.8443
ltibia 33.5829
lfoot -17.2424 23.2745
ltoes -10.3999
387
root 1.56417 17.7127 -28.1764 3.0566 2.68368 -7.19377
lowerback 5.57075 -0.670462 -5.18123
upperback 1.652 -1.14817 1.76144
thorax -1.27764 -0.575451 4.81255
lowerneck -23.7506 2.00054 10.6755
upperneck 34.7833 0.748018 -6.19176
head 16.6381 0.828347 -4.46904
rclavicle 2.38542e-015 -2.38542e-014
rhumerus -19.1542 -23.0792 -8.6787
rradius 30.7517
rwrist -2.3926
rhand -17.5292 -5.14606
rfingers 7.12502
rthumb 8.72471 -34.9457
lclavicle 2.38542e-015 -2.38542e-014
lhumerus -18.7928 21.7236 19.3793
lradius 33.4454
lwrist -2.16793
lhand -13.3784 3.38136
lfingers 7.12502
lthumb 12.7284 32.9734
rfemur -14.3695 -7.55729 21.1583
rtibia 43.0864
rfoot -11.4385 -20.1987
rtoes -9.74638
lfemur -7.23304 0.29314 -14.8562
ltibia 33.474
lfoot -17.1898 23.3248
ltoes -10.4885
388
root 1.56147 17.7158 -28.1623 3.04669 2.57416 -7.16227
lowerback 5.63357 -0.682033 -5.36507
upperback 1.68423 -1.17772 1.68561
thorax -1.27328 -0.590974 4.84042
lowerneck -23.6759 2.07557 10.7157
upperneck 34.7882 0.792627 -6.04082
head 16.6303 0.874646 -4.3976
rclavicle -5.96354e-015 2.22639e-014
rhumerus -18.9811 -22.9377 -8.76647
rradius 30.7952
rwrist -2.48606
rhand -17.5029 -5.14483
rfingers 7.12502
rthumb 8.75003 -34.9435
lclavicle -5.96354e-015 2.22639e-014
lhumerus -18.8465 21.7895 19.5324
lradius 33.3468
lwrist -2.26431
lhand -13.3482 3.4138
lfingers 7.12502
lthumb 12.7576 33.004
rfemur -14.8416 -7.57181 21.1128
rtibia 43.9729
rfoot -11.0657 -20.0017
rtoes -9.65044
lfemur -7.08961 0.343796 -14.8885
ltibia 33.3491
lfoot -17.1409 23.3678
ltoes -10.5641
389
root 1.55844 17.7185 -28.1479 3.03093 2.46911 -7.11794
lowerback 5.69808 -0.693158 -5.55168
upperback 1.72021 -1.20718 1.60101
thorax -1.26599 -0.606652 4.86068
lowerneck -23.6092 2.15039 10.7612
upperneck 34.8187 0.832229 -5.8858
head 16.6369 0.921129 -4.32783
rclavicle -2.80286e-014 -1.43125e-014
rhumerus -18.82 -22.8104 -8.84893
rradius 30.8466
rwrist -2.59513
rhand -17.497 -5.15993
rfingers 7.12502
rthumb 8.75577 -34.9583
lclavicle -2.80286e-014 -1.43125e-014
lhumerus -18.8765 21.8794 19.6709
lradius 33.233
lwrist -2.38266
lhand -13.3673 3.41564
lfingers 7.12502
lthumb 12.7391 33.007
rfemur -15.3255 -7.58187 21.0604
rtibia 44.888
rfoot -10.6697 -19.8375
rtoes -9.45192
lfemur -6.93113 0.406114 -14.934
ltibia 33.2093
lfoot -17.1001 23.4045
ltoes -10.6106
390
root 1.55472 17.721 -28.133 3.00674 2.3643 -7.07448
lowerback 5.77098 -0.708415 -5.73795
upperback 1.75842 -1.2428 1.51457
thorax -1.2602 -0.625442 4.87934
lowerneck -23.5575 2.20879 10.7841
upperneck 34.8956 0.852091 -5.72301
head 16.6682 0.959109 -4.25727
rclavicle 5.96354e-015 -1.43125e-014
rhumerus -18.644 -22.7057 -8.94243
rradius 30.8967
rwrist -2.67361
rhand -17.4941 -5.1864
rfingers 7.12502
rthumb 8.75852 -34.9847
lclavicle 5.96354e-015 -1.43125e-014
lhumerus -18.9124 21.9884 19.7745
lradius 33.1268
lwrist -2.49827
lhand -13.3846 3.43761
lfingers 7.12502
lthumb 12.7224 33.03
rfemur -15.819 -7.57806 21.0203
rtibia 45.8284
rfoot -10.2533 -19.7173
rtoes -9.16766
lfemur -6.75423 0.481821 -14.9751
ltibia 33.0541
lfoot -17.0717 23.4353
ltoes -10.6435
391
root 1.55037 17.7228 -28.1174 2.9682 2.2582 -7.02845
lowerback 5.85416 -0.721759 -5.92875
upperback 1.80867 -1.2768 1.42228
thorax -1.24773 -0.643977 4.89439
lowerneck -23.5224 2.25381 10.7937
upperneck 34.9766 0.847929 -5.54232
head 16.7025 0.988091 -4.18147
rclavicle 8.15017e-015 -3.18055e-015
rhumerus -18.4707 -22.6464 -9.03413
rradius 30.9439
rwrist -2.72894
rhand -17.4632 -5.17654
rfingers 7.12502
rthumb 8.78837 -34.9736
lclavicle 8.15017e-015 -3.18055e-015
lhumerus -18.9158 22.1547 19.8591
lradius 33.0083
lwrist -2.63674
lhand -13.4146 3.47274
lfingers 7.12502
lthumb 12.6935 33.067
rfemur -16.3119 -7.56517 20.9858
rtibia 46.7927
rfoot -9.81677 -19.64
rtoes -8.78126
lfemur -6.54757 0.561462 -15.0174
ltibia 32.8794
lfoot -17.0566 23.4715
ltoes -10.6595
